# AST/ASF file generated using VICON BodyLanguage
# -----------------------------------------------
:version 1.10
:name VICON
:units
  mass 1.0
  length 0.45
  angle deg
:documentation
   .ast/.asf automatically generated from VICON data using
   VICON BodyBuilder and BodyLanguage model FoxedUp or BRILLIANT.MOD
:root
   order TX TY TZ RX RY RZ
   axis XYZ
   position 0 0 0  
   orientation 0 0 0 
:bonedata
  begin
     id 1 
     name lhipjoint
     direction 0.566809 -0.746272 0.349008 
     length 2.40479 
     axis 0 0 0  XYZ
  end
  begin
     id 2 
     name lfemur
     direction 0.34202 -0.939693 0  
     length 7.1578  
     axis 0 0 20  XYZ
    dof rx ry rz
    limits (-160.0 20.0)
           (-70.0 70.0)
           (-60.0 70.0)
  end
  begin
     id 3 
     name ltibia
     direction 0.34202 -0.939693 0   
     length 7.49137   
     axis 0 0 20   XYZ
    dof rx
    limits (-10.0 170.0)
  end
  begin
     id 4 
     name lfoot
     direction 0.0665746 -0.182912 0.980873   
     length 2.36784   
     axis -90 7.62852e-016 20   XYZ
    dof rx rz
    limits (-45.0 90.0)
           (-70.0 20.0)
  end
  begin
     id 5 
     name ltoes
     direction 1.53601e-011 -4.22058e-011 1   
     length 1.18966   
     axis -90 7.62852e-016 20   XYZ
    dof rx
    limits (-90.0 20.0)
  end
  begin
     id 6 
     name rhipjoint
     direction -0.550236 -0.756381 0.353735   
     length 2.37265  
     axis 0 0 0  XYZ 
  end
  begin
     id 7 
     name rfemur
     direction -0.34202 -0.939693 0   
     length 7.43386   
     axis 0 0 -20   XYZ
    dof rx ry rz
    limits (-160.0 20.0)
           (-70.0 70.0)
           (-70.0 60.0)
  end
  begin
     id 8 
     name rtibia
     direction -0.34202 -0.939693 0   
     length 7.50908   
     axis 0 0 -20   XYZ
    dof rx
    limits (-10.0 170.0)
 end
 begin
     id 9 
     name rfoot
     direction -0.0683029 -0.187661 0.979856   
     length 2.41173  
     axis -90 -7.62852e-016 -20   XYZ
    dof rx rz
    limits (-45.0 90.0)
           (-20.0 70.0)
  end
  begin
     id 10 
     name rtoes
     direction -1.53528e-011 -4.21968e-011 1   
     length 1.21082   
     axis -90 -7.62852e-016 -20   XYZ
    dof rx
    limits (-90.0 20.0)
  end
  begin
     id 11 
     name lowerback
     direction 0.013823 0.995423 -0.0945635   
     length 2.04495   
     axis 0 0 0   XYZ
    dof rx ry rz
    limits (-20.0 45.0)
           (-30.0 30.0)
           (-30.0 30.0)
  end
  begin
     id 12 
     name upperback
     direction 0.0276657 0.9994 -0.020853   
     length 2.05008   
     axis 0 0 0   XYZ
    dof rx ry rz
    limits (-20.0 45.0)
           (-30.0 30.0)
           (-30.0 30.0)
  end
  begin
     id 13 
     name thorax
     direction 0.019782 0.999531 0.0233827   
     length 2.06488   
     axis 0 0 0   XYZ
    dof rx ry rz
    limits (-20.0 45.0)
           (-30.0 30.0)
           (-30.0 30.0)
  end
  begin
     id 14 
     name lowerneck
     direction -0.0308541 0.994709 0.0979874   
     length 1.75553   
     axis 0 0 0   XYZ
    dof rx ry rz
    limits (-20.0 45.0)
           (-30.0 30.0)
           (-30.0 30.0)
  end
  begin
     id 15 
     name upperneck
     direction 0.0588398 0.995804 -0.0700903   
     length 1.76878   
     axis 0 0 0   XYZ
    dof rx ry rz
    limits (-20.0 45.0)
           (-30.0 30.0)
           (-30.0 30.0)
  end
  begin
     id 16
     name head
     direction 0.0209966 0.999159 -0.0352225  
     length 1.77193  
     axis 0 0 0   XYZ
    dof rx ry rz
    limits (-20.0 45.0)
           (-30.0 30.0)
           (-30.0 30.0)
  end
  begin
     id 17 
     name lclavicle
     direction 0.938182 0.335073 -0.0868338  
     length 3.58396  
     axis 0 0 0   XYZ
    dof ry rz
    limits (-20.0 10.0)
           (0.0 20.0)
  end
  begin
     id 18 
     name lhumerus
     direction 1 -4.48971e-011 -1.26313e-017   
     length 4.983   
     axis 180 -30 -90   XYZ
    dof rx ry rz
    limits (-60.0 90.0)
           (-90.0 90.0)
           (-90.0 90.0)
  end
  begin
     id 19
     name lradius
     direction 1 -4.48948e-011 -5.89033e-027   
     length 3.48356   
     axis 180 -30 -90   XYZ
    dof rx
    limits (-10.0 170.0)
  end
  begin
     id 20
     name lwrist
     direction 1 -4.48977e-011 -1.48983e-026   
     length 1.74178   
     axis 9.0955e-015 90 90   XYZ
    dof ry
    limits (-180.0 0.0)
 end
  begin
     id 21 
     name lhand
     direction 1 -4.49046e-011 -2.98066e-026   
     length 0.715259   
     axis 1.90115e-014 90 90   XYZ
    dof rx rz
    limits (-90.0 90.0)
           (-45.0 45.0)
  end
  begin
     id 22 
     name lfingers
     direction 1 -4.48907e-011 -5.95731e-026   
     length 0.576661   
     axis 3.80223e-014 90 90   XYZ
    dof rx
    limits (0.0 90.0)
  end
  begin
     id 23
     name lthumb
     direction 0.707107 -6.34963e-011 0.707107   
     length 0.827973   
     axis -90 45 -3.84942e-014   XYZ
    dof rx rz
    limits (-45.0 45.0)
           (-45.0 45.0)
  end
  begin
     id 24 
     name rclavicle
     direction -0.909637 0.398485 -0.11735   
     length 3.44819  
     axis 0 0 0   XYZ 
    dof ry rz
    limits (-10.0 20.0)
           (-20.0 0.0)
  end
  begin
     id 25 
     name rhumerus
     direction -1 -4.48978e-011 -1.09333e-027  
     length 5.2419   
     axis 180 30 90   XYZ
    dof rx ry rz
    limits (-90.0 60.0)
           (-90.0 90.0)
           (-90.0 90.0)
  end
  begin
     id 26 
     name rradius
     direction -1 -4.48953e-011 -7.61841e-027   
     length 3.44417   
     axis 180 30 90   XYZ
    dof rx
    limits (-10.0 170.0)
  end
  begin
     id 27 
     name rwrist
     direction -1 -4.48977e-011 -1.48983e-026   
     length 1.72209   
     axis 9.0955e-015 -90 -90   XYZ
    dof ry
    limits (-180.0 0.0)
  end
  begin
     id 28
     name rhand
     direction -1 -4.49027e-011 -2.98038e-026   
     length 0.622529   
     axis 1.90115e-014 -90 -90   XYZ
    dof rx rz
    limits (-90.0 90.0)
           (-45.0 45.0)
  end
  begin
     id 29
     name rfingers
     direction -1 -4.48838e-011 -5.95531e-026   
     length 0.501899   
     axis 3.80223e-014 -90 -90   XYZ
    dof rx
    limits (0.0 90.0)
  end
  begin
     id 30
     name rthumb
     direction -0.707107 -6.34937e-011 0.707107   
     length 0.720629   
     axis -90 -45 3.84942e-014   XYZ
    dof rx rz
    limits (-45.0 45.0)
           (-45.0 45.0)
  end
:hierarchy
  begin
    root lhipjoint rhipjoint lowerback
    lhipjoint lfemur
    lfemur ltibia
    ltibia lfoot
    lfoot ltoes
    rhipjoint rfemur
    rfemur rtibia
    rtibia rfoot
    rfoot rtoes
    lowerback upperback
    upperback thorax
    thorax lowerneck lclavicle rclavicle
    lowerneck upperneck
    upperneck head
    lclavicle lhumerus
    lhumerus lradius
    lradius lwrist
    lwrist lhand lthumb
    lhand lfingers
    rclavicle rhumerus
    rhumerus rradius
    rradius rwrist
    rwrist rhand rthumb
    rhand rfingers
  end

#!OML:ASF F:\VICON\USERDATA\Patient Classification 1\PLAYGROUND\JustinFriday\JustinFriday.ASF
:FULLY-SPECIFIED
:DEGREES
803
root 13.2932 28.1829 40.3891 140.251 6.41553 -173.147
lowerback 30.3838 0.791005 -2.78429
upperback 13.0438 4.54014 5.95784
thorax -2.49848 3.70473 6.73703
lowerneck -1.242 -2.41368 -6.00112
upperneck 27.2536 -6.19813 0.085821
head 8.89149 -4.67739 0.385285
rclavicle 3.35449e-015 1.98785e-014
rhumerus 55.0484 -1.48424 -70.9396
rradius 113.183
rwrist 12.0131
rhand -16.7743 -16.7937
rfingers 7.12502
rthumb 9.45313 -46.5617
lclavicle 3.35449e-015 1.98785e-014
lhumerus 59.0065 -4.88327 79.7152
lradius 112.147
lwrist -26.1075
lhand 9.71686 3.50776
lfingers 7.12502
lthumb 34.8577 30.0969
rfemur -89.4925 -17.8249 37.3497
rtibia 133.696
rfoot 37.2429 -19.1413
rtoes 63.2948
lfemur -33.3948 9.67013 -9.45176
ltibia 59.1132
lfoot 9.23979 2.08834
ltoes 9.51343
804
root 13.2778 28.123 40.3161 140.495 6.66927 -173.365
lowerback 30.1075 0.917358 -2.65591
upperback 12.9021 4.64904 5.91853
thorax -2.54746 3.72895 6.58297
lowerneck -1.57807 -2.28861 -5.99488
upperneck 27.7255 -6.10456 0.246924
head 9.12103 -4.64257 0.423508
rclavicle -1.35205e-014 1.31198e-014
rhumerus 55.5412 -1.60594 -71.0986
rradius 112.803
rwrist 12.8529
rhand -17.3292 -16.4961
rfingers 7.12502
rthumb 8.91767 -46.2877
lclavicle -1.35205e-014 1.31198e-014
lhumerus 59.3675 -4.83339 79.6791
lradius 112.044
lwrist -25.9411
lhand 10.0642 3.22023
lfingers 7.12502
lthumb 35.1872 29.7324
rfemur -89.0707 -17.2788 36.7754
rtibia 132.319
rfoot 31.3007 -23.165
rtoes 61.9214
lfemur -33.837 9.67645 -9.45101
ltibia 59.6698
lfoot 9.05492 1.85038
ltoes 9.69
805
root 13.2641 28.0619 40.2433 140.458 6.82653 -173.871
lowerback 30.1051 1.10664 -2.81891
upperback 12.8178 4.78613 5.78687
thorax -2.65907 3.77357 6.47859
lowerneck -1.69108 -2.36799 -5.97429
upperneck 27.8304 -6.2199 0.220823
head 9.18227 -4.7007 0.394675
rclavicle -3.47376e-014 -8.34896e-015
rhumerus 56.0205 -1.86201 -70.9592
rradius 112.579
rwrist 12.2447
rhand -16.9156 -16.6716
rfingers 7.12502
rthumb 9.3168 -46.4457
lclavicle -3.47376e-014 -8.34896e-015
lhumerus 59.74 -4.67313 79.5694
lradius 112.069
lwrist -25.6851
lhand 10.6255 3.50651
lfingers 7.12502
lthumb 35.7194 29.8915
rfemur -88.2828 -16.7704 36.3415
rtibia 130.647
rfoot 28.3921 -23.9894
rtoes 61.0083
lfemur -33.9784 9.64221 -9.71476
ltibia 60.2145
lfoot 8.84201 1.8053
ltoes 9.92275
806
root 13.2548 28.0066 40.1739 140.326 6.84618 -174.533
lowerback 30.0623 1.31834 -3.19594
upperback 12.7905 4.90325 5.60691
thorax -2.68837 3.80608 6.45727
lowerneck -1.71599 -2.30073 -5.77337
upperneck 27.7424 -6.07132 0.0855593
head 9.13882 -4.61442 0.330333
rclavicle 2.15654e-014 4.29375e-014
rhumerus 56.5965 -2.02368 -71.1217
rradius 112.561
rwrist 11.6473
rhand -16.6022 -17.4596
rfingers 7.12502
rthumb 9.61921 -47.22
lclavicle 2.15654e-014 4.29375e-014
lhumerus 60.125 -4.41255 79.4568
lradius 112.069
lwrist -25.3497
lhand 11.0543 3.89528
lfingers 7.12502
lthumb 36.1256 30.1808
rfemur -87.4293 -16.393 35.8251
rtibia 128.857
rfoot 26.6549 -23.7877
rtoes 60.284
lfemur -33.9759 9.4824 -10.1929
ltibia 60.6673
lfoot 8.77944 1.82082
ltoes 9.82737
807
root 13.2235 27.9347 40.0971 140.659 6.75979 -174.521
lowerback 29.6237 1.11075 -2.59352
upperback 12.6534 4.71761 5.47493
thorax -2.59028 3.70524 6.02952
lowerneck -1.80993 -2.32487 -5.66719
upperneck 27.6915 -6.06473 0.0340595
head 9.13265 -4.59516 0.295057
rclavicle -1.59307e-014 -4.25399e-014
rhumerus 57.1089 -2.18723 -71.1278
rradius 112.248
rwrist 11.234
rhand -16.6226 -17.764
rfingers 7.12502
rthumb 9.5995 -47.5253
lclavicle -1.59307e-014 -4.25399e-014
lhumerus 60.5236 -4.09602 79.3698
lradius 111.91
lwrist -24.9292
lhand 11.1452 4.07489
lfingers 7.12502
lthumb 36.2117 30.3391
rfemur -87.2454 -16.1592 35.6835
rtibia 127.084
rfoot 25.3192 -23.2244
rtoes 59.5533
lfemur -34.7472 9.01528 -10.3657
ltibia 61.1633
lfoot 8.91407 1.56267
ltoes 8.2856
808
root 13.2158 27.8647 40.0214 140.695 7.15198 -174.659
lowerback 29.5722 1.23774 -2.35173
upperback 12.568 4.90447 5.49554
thorax -2.68103 3.7888 5.84686
lowerneck -1.9534 -2.38961 -5.56021
upperneck 27.7524 -6.12412 -0.0701882
head 9.17623 -4.61905 0.230864
rclavicle 2.61837e-015 0
rhumerus 57.5666 -2.31716 -71.1006
rradius 111.863
rwrist 11.2307
rhand -16.4343 -17.7291
rfingers 7.12502
rthumb 9.78116 -47.482
lclavicle 2.61837e-015 0
lhumerus 60.9091 -3.80959 79.277
lradius 111.627
lwrist -24.4816
lhand 10.6274 3.95826
lfingers 7.12502
lthumb 35.7211 30.3428
rfemur -86.2748 -15.5285 35.9794
rtibia 124.885
rfoot 26.0024 -21.417
rtoes 59.3125
lfemur -35.0945 9.3472 -10.1466
ltibia 61.6372
lfoot 9.01535 0.890961
ltoes 6.82675
809
root 13.2116 27.8056 39.9547 140.624 7.51348 -175.076
lowerback 29.4783 1.47174 -2.39294
upperback 12.5335 5.1515 5.46308
thorax -2.7088 3.89365 5.75529
lowerneck -2.10972 -2.44086 -5.35007
upperneck 27.8574 -6.16508 -0.248246
head 9.23124 -4.63456 0.123842
rclavicle 6.29899e-015 6.36111e-015
rhumerus 58.0883 -2.40908 -71.0446
rradius 111.477
rwrist 11.0446
rhand -16.1957 -17.5911
rfingers 7.12502
rthumb 10.0114 -47.333
lclavicle 6.29899e-015 6.36111e-015
lhumerus 61.3248 -3.55463 79.1955
lradius 111.162
lwrist -24.0621
lhand 9.94585 3.64798
lfingers 7.12502
lthumb 35.075 30.1865
rfemur -85.4057 -14.7001 35.6838
rtibia 122.902
rfoot 25.7417 -20.5823
rtoes 58.7974
lfemur -35.2684 9.72181 -10.1307
ltibia 62.1163
lfoot 9.09103 0.434341
ltoes 6.27764
810
root 13.2138 27.7442 39.877 140.353 8.03305 -175.716
lowerback 29.4553 1.83996 -2.64498
upperback 12.5741 5.53209 5.42288
thorax -2.70947 4.06503 5.7346
lowerneck -2.22882 -2.50311 -5.25577
upperneck 27.9649 -6.26069 -0.26457
head 9.29096 -4.67352 0.0872333
rclavicle 5.78774e-014 -1.51076e-014
rhumerus 58.6353 -2.55293 -70.9345
rradius 111.164
rwrist 10.4794
rhand -16.0264 -17.3894
rfingers 7.12502
rthumb 10.1747 -47.1234
lclavicle 5.78774e-014 -1.51076e-014
lhumerus 61.7951 -3.2963 79.1422
lradius 110.655
lwrist -23.6408
lhand 9.44938 3.56276
lfingers 7.12502
lthumb 34.6039 30.2104
rfemur -84.3568 -13.8535 35.2566
rtibia 121.017
rfoot 25.4512 -19.583
rtoes 58.3517
lfemur -35.1567 10.2019 -10.0898
ltibia 62.5367
lfoot 9.24911 0.118519
ltoes 6.79746
811
root 13.1669 27.6564 39.7889 140.845 7.44527 -175.379
lowerback 28.9528 1.30674 -1.59168
upperback 12.3428 5.03326 5.24075
thorax -2.61657 3.8225 5.09544
lowerneck -2.39346 -2.55652 -5.236
upperneck 28.1664 -6.36027 -0.251052
head 9.39686 -4.72518 0.0680554
rclavicle 3.38245e-014 1.63003e-014
rhumerus 59.1082 -2.69048 -70.7959
rradius 110.819
rwrist 10.1871
rhand -16.0248 -17.3904
rfingers 7.12502
rthumb 10.1762 -47.1243
lclavicle 3.38245e-014 1.63003e-014
lhumerus 62.2031 -3.01559 79.0992
lradius 110.323
lwrist -23.1911
lhand 9.27301 3.7702
lfingers 7.12502
lthumb 34.4365 30.456
rfemur -84.9024 -14.8588 35.3174
rtibia 119.447
rfoot 25.5783 -17.5951
rtoes 58.035
lfemur -36.528 9.22341 -10.4312
ltibia 63.1083
lfoot 9.65969 0.0593709
ltoes 7.31699
812
root 13.1706 27.6044 39.7284 140.597 7.65028 -175.793
lowerback 29.1684 1.50956 -1.77086
upperback 12.3055 5.23276 5.18924
thorax -2.78324 3.91253 5.06383
lowerneck -2.70113 -2.56595 -5.00082
upperneck 28.3891 -6.35238 -0.402199
head 9.52099 -4.7153 -0.0387289
rclavicle 2.78671e-014 2.38542e-014
rhumerus 59.6147 -2.73035 -70.723
rradius 110.416
rwrist 10.3489
rhand -16.155 -17.4904
rfingers 7.12502
rthumb 10.0506 -47.2304
lclavicle 2.78671e-014 2.38542e-014
lhumerus 62.5467 -2.71188 79.0997
lradius 110.073
lwrist -22.7678
lhand 9.41115 3.96955
lfingers 7.12502
lthumb 34.5676 30.6255
rfemur -83.9785 -14.4042 34.9552
rtibia 117.549
rfoot 26.0019 -16.6459
rtoes 57.8022
lfemur -36.5498 9.50416 -10.4711
ltibia 63.4111
lfoot 9.60977 -0.615443
ltoes 6.73793
813
root 13.1638 27.5343 39.6513 140.504 7.88696 -176.114
lowerback 29.0869 1.58778 -1.65079
upperback 12.315 5.34047 5.09528
thorax -2.73212 3.96371 4.86026
lowerneck -3.06678 -2.50837 -4.69783
upperneck 28.5207 -6.24421 -0.447164
head 9.62165 -4.62889 -0.109141
rclavicle -1.22501e-014 -7.95139e-015
rhumerus 60.2017 -2.75753 -70.665
rradius 110.059
rwrist 10.5087
rhand -16.0014 -17.7464
rfingers 7.12502
rthumb 10.1988 -47.4792
lclavicle -1.22501e-014 -7.95139e-015
lhumerus 62.8808 -2.36891 79.1611
lradius 109.859
lwrist -22.3639
lhand 9.49351 3.96305
lfingers 7.12502
lthumb 34.6458 30.6011
rfemur -83.0998 -13.9071 34.7164
rtibia 115.644
rfoot 27.0415 -15.0456
rtoes 57.799
lfemur -36.8596 9.63747 -10.4491
ltibia 63.786
lfoot 9.48108 -1.20392
ltoes 6.11902
814
root 13.1582 27.4755 39.5895 140.47 8.15486 -176.389
lowerback 28.9025 1.67119 -1.49608
upperback 12.3152 5.45454 5.02797
thorax -2.64492 4.01417 4.67029
lowerneck -3.25135 -2.49595 -4.5363
upperneck 28.5246 -6.23375 -0.330044
head 9.65533 -4.58457 -0.0995285
rclavicle -1.0138e-014 -1.47101e-014
rhumerus 60.7802 -2.78931 -70.575
rradius 109.681
rwrist 10.5148
rhand -15.6499 -18.1308
rfingers 7.12502
rthumb 10.5379 -47.8467
lclavicle -1.0138e-014 -1.47101e-014
lhumerus 63.1826 -2.01339 79.268
lradius 109.626
lwrist -21.938
lhand 9.43801 3.72778
lfingers 7.12502
lthumb 34.5931 30.3779
rfemur -82.487 -13.3494 34.7317
rtibia 113.715
rfoot 28.4281 -13.6423
rtoes 57.8437
lfemur -37.1795 9.65046 -10.3484
ltibia 63.9996
lfoot 9.53483 -1.46845
ltoes 5.89567
815
root 13.1385 27.4189 39.5274 140.458 8.13942 -176.508
lowerback 28.9089 1.58622 -1.12217
upperback 12.2107 5.40624 4.92465
thorax -2.73026 3.99147 4.34913
lowerneck -3.25801 -2.60087 -4.38524
upperneck 28.4089 -6.37527 -0.310409
head 9.61349 -4.62208 -0.127316
rclavicle 4.48881e-014 -7.15625e-015
rhumerus 61.3121 -2.85401 -70.5086
rradius 109.299
rwrist 10.414
rhand -15.5949 -18.2813
rfingers 7.12502
rthumb 10.591 -47.9944
lclavicle 4.48881e-014 -7.15625e-015
lhumerus 63.5501 -1.69688 79.2745
lradius 109.24
lwrist -21.4951
lhand 9.36077 3.60203
lfingers 7.12502
lthumb 34.5198 30.2689
rfemur -81.7818 -13.2829 34.4985
rtibia 111.74
rfoot 29.9582 -11.983
rtoes 58.0699
lfemur -37.6136 9.41414 -10.4059
ltibia 64.1898
lfoot 9.55892 -1.70745
ltoes 6.3272
816
root 13.1131 27.3613 39.464 140.578 7.84642 -176.658
lowerback 28.7514 1.4081 -0.745419
upperback 12.0906 5.21915 4.74223
thorax -2.73918 3.89566 3.99216
lowerneck -3.26061 -2.7856 -4.29149
upperneck 28.2426 -6.61739 -0.288165
head 9.55743 -4.70826 -0.152067
rclavicle -1.13556e-014 -2.50469e-014
rhumerus 61.8327 -2.97201 -70.4588
rradius 108.904
rwrist 10.2332
rhand -15.8388 -18.0073
rfingers 7.12502
rthumb 10.3557 -47.7324
lclavicle -1.13556e-014 -2.50469e-014
lhumerus 64.0488 -1.37166 79.1851
lradius 108.83
lwrist -21.047
lhand 9.35721 3.70124
lfingers 7.12502
lthumb 34.5164 30.3689
rfemur -81.4848 -13.4771 34.1457
rtibia 109.965
rfoot 31.2935 -10.5275
rtoes 58.2644
lfemur -38.2428 9.07389 -10.7363
ltibia 64.2258
lfoot 9.58087 -2.04603
ltoes 6.95996
